<svg width="44" height="44" fill="none" xmlns="http://www.w3.org/2000/svg"><g clip-path="url(#clip0)" fill="#AFB1B8"><path d="M32 32v-7.34c0-3.58-.77-6.35-4.97-6.35a4.35 4.35 0 00-3.92 2.16h-.06v-1.82h-3.98V32h4.15v-6.61c0-1.74.33-3.43 2.48-3.43 2.13 0 2.16 1.99 2.16 3.54V32H32zM12.33 18.65h4.15V32h-4.15V18.65zM14.4 12a2.4 2.4 0 00-2.4 2.4 2.42 2.42 0 002.4 2.43c1.33 0 2.4-1.1 2.4-2.43a2.4 2.4 0 00-2.4-2.4z"/></g><defs><clipPath id="clip0"><path fill="#fff" d="M12 12h20v20H12z"/></clipPath></defs></svg>